<?xml version="1.0" encoding="utf-8"?>
<!-- Generator: Adobe Illustrator 26.2.1, SVG Export Plug-In . SVG Version: 6.00 Build 0)  -->
<svg version="1.1" id="Layer_1" xmlns="http://www.w3.org/2000/svg" xmlns:xlink="http://www.w3.org/1999/xlink" x="0px" y="0px"
	 viewBox="0 0 201 201" style="enable-background:new 0 0 201 201;" xml:space="preserve">
<style type="text/css">
	.st0{display:none;}
	.st1{display:inline;}
</style>
<g>
	<g>
		<path d="M152.57,17.93L32.13,70.31c-7.44,3.24-10.85,11.89-7.61,19.34l0,0c3.24,7.44,11.89,10.85,19.34,7.61l120.44-52.38
			c7.44-3.24,10.85-11.89,7.61-19.34l0,0C168.67,18.1,160.01,14.69,152.57,17.93z"/>
		<path d="M148.16,32.68l-20.54,129.72c-1.27,8.02,4.2,15.54,12.22,16.81h0c8.02,1.27,15.54-4.2,16.81-12.22l20.54-129.72
			c1.27-8.02-4.2-15.54-12.22-16.81l0,0C156.95,19.2,149.42,24.67,148.16,32.68z"/>
		<path d="M100.23,134.53l-54.73,31.6c-4.35,2.51-5.84,8.07-3.33,12.42l0,0c2.51,4.35,8.07,5.84,12.42,3.33l54.73-31.6
			c4.35-2.51,5.84-8.07,3.33-12.42l0,0C110.15,133.51,104.58,132.02,100.23,134.53z"/>
		<path d="M145.13,163.6l-32.67-26.38c-3.91-3.16-9.63-2.54-12.79,1.36l0,0c-3.16,3.91-2.54,9.63,1.36,12.79l32.67,26.38
			c3.91,3.16,9.63,2.54,12.79-1.36l0,0C149.65,172.48,149.04,166.76,145.13,163.6z"/>
		<path d="M92.31,89.28l-57.8,71.6c-5.1,6.31-4.11,15.57,2.2,20.66l0,0c6.31,5.1,15.57,4.11,20.66-2.2l57.8-71.6
			c5.1-6.31,4.11-15.57-2.2-20.66l0,0C106.66,81.98,97.41,82.97,92.31,89.28z"/>
	</g>
</g>
</svg>
